<svg width="194" height="132" viewBox="0 0 194 132" fill="none" xmlns="http://www.w3.org/2000/svg">
<path d="M40.4302 67.693C44.6271 59.3726 50.6645 52.7568 58.5421 47.8455C66.4198 42.9343 75.6428 40.2222 86.2112 39.7093C96.7796 39.1964 108.024 41.2358 119.945 45.8274L144.204 13.4299C153.551 0.98198 163.739 -2.67046 174.769 2.47258C180.83 5.29894 185.555 9.67875 188.944 15.612C192.234 21.499 193.593 28.7824 193.019 37.4624C192.445 46.1423 189.492 55.7682 184.16 66.34C174.136 86.211 162.414 101.542 148.994 112.332C135.425 123.174 121.447 129.473 107.061 131.228C92.5255 133.035 78.6504 130.857 65.4351 124.695C56.095 120.339 49.0104 115.041 44.1812 108.799C39.2526 102.51 36.5561 95.812 36.0916 88.7034C35.4783 81.6464 36.9245 74.643 40.4302 67.693ZM109.634 59.6999C87.9809 52.7466 72.5377 58.4223 63.3044 76.7271C60.0455 83.1876 59.5899 89.4439 61.9375 95.4959C64.1363 101.6 69.7567 106.76 78.7987 110.976C89.0331 115.748 99.5805 116.737 110.441 113.942C121.202 111.101 131.533 104.976 141.434 95.5668C151.186 86.2095 159.716 74.2873 167.023 59.8001C170.085 53.7311 172.204 48.0693 173.382 42.8147C174.46 37.5138 174.722 33.1017 174.167 29.5785C173.464 26.1067 172.218 23.9539 170.429 23.1199C167.945 21.9615 164.354 24.4583 159.655 30.6101L140.739 56.0675C144.317 58.4618 145.883 59.4942 145.436 59.1647C148.17 61.0441 149.663 62.8286 149.915 64.5181C150.118 66.3055 149.701 68.2271 148.664 70.2827C147.578 72.4362 146.118 73.8712 144.284 74.5877C142.35 75.2579 140.29 75.0833 138.104 74.064C137.111 73.6007 136.39 73.2042 135.943 72.8747C133.756 71.3711 132.041 70.2692 130.798 69.569C125.655 76.6018 118.657 85.9738 109.804 97.685C107.529 100.735 105.003 102.459 102.225 102.856C99.2985 103.305 96.3944 102.858 93.5129 101.514C90.2339 99.9852 88.2198 98.2601 87.4706 96.3389C86.5727 94.4692 86.7903 92.2129 88.1235 89.57C88.9135 88.0038 89.6547 86.7776 90.3472 85.8914L109.634 59.6999Z" fill="#FF3474"/>
<path d="M153.631 67.4384C149.428 59.1211 143.385 52.5081 135.503 47.5993C127.62 42.6906 118.393 39.9807 107.821 39.4694C97.2496 38.9582 86.0029 40.9985 74.0812 45.5904L49.797 13.2059C40.4398 0.763024 30.2465 -2.8869 19.2172 2.25614C13.156 5.08249 8.4321 9.46166 5.04534 15.3936C1.75794 21.2793 0.403676 28.5607 0.982544 37.238C1.56141 45.9153 4.52101 55.5379 9.86135 66.1058C19.8992 85.9694 31.6335 101.294 45.0642 112.079C58.6437 122.916 72.629 129.211 87.0203 130.964C101.56 132.768 115.438 130.589 128.653 124.426C137.993 120.071 145.077 114.773 149.904 108.532C154.83 102.245 157.523 95.5484 157.984 88.4419C158.593 81.3869 157.142 74.3858 153.631 67.4384ZM84.4037 59.4573C106.059 52.503 121.51 58.1749 130.756 76.473C134.02 82.9311 134.479 89.1855 132.135 95.236C129.939 101.338 124.32 106.497 115.278 110.714C105.044 115.486 94.4938 116.476 83.6288 113.683C72.8631 110.844 62.5257 104.723 52.6165 95.318C42.8562 85.9648 34.3169 74.0473 26.9986 59.5654C23.9329 53.4987 21.8095 47.8389 20.6283 42.586C19.5466 37.2869 19.2821 32.8761 19.8349 29.3538C20.5365 25.8831 21.7816 23.7307 23.5701 22.8966C26.0542 21.7383 29.648 24.2338 34.3516 30.3832L53.2885 55.8303C49.71 58.2244 48.1445 59.2567 48.5918 58.9272C45.8582 60.8065 44.3656 62.5906 44.1142 64.2797C43.9122 66.0666 44.3304 67.9875 45.3688 70.0423C46.4566 72.1951 47.9181 73.6294 49.7533 74.3455C51.6878 75.0152 53.7481 74.8404 55.9341 73.8211C56.9277 73.3577 57.6482 72.9613 58.0956 72.6318C60.2825 71.1284 61.9971 70.0266 63.2394 69.3264C68.388 76.3564 75.3935 85.7246 84.2558 97.431C86.5332 100.48 89.0613 102.203 91.8402 102.6C94.7679 103.048 97.6725 102.601 100.554 101.257C103.833 99.7279 105.847 98.003 106.595 96.0823C107.492 94.213 107.273 91.9575 105.938 89.3155C105.147 87.7499 104.405 86.5241 103.711 85.6383L84.4037 59.4573Z" fill="#FF3474"/>
</svg>
